<?xml version="1.0" encoding="UTF-8"?>
<svg width="138px" height="32px" viewBox="0 0 138 32" version="1.1" xmlns="http://www.w3.org/2000/svg" xmlns:xlink="http://www.w3.org/1999/xlink">
    <!-- Generator: Sketch 46.2 (44496) - http://www.bohemiancoding.com/sketch -->
    <title>logo</title>
    <desc>Created with Sketch.</desc>
    <defs></defs>
    <g id="working" stroke="none" stroke-width="1" fill="none" fill-rule="evenodd">
        <g id="logo">
            <path d="M89.7128906,19.9389648 C89.5136709,19.7426748 89.4140625,19.5039077 89.4140625,19.2226562 L89.4140625,12.1914062 C89.4140625,11.9160142 89.5136709,11.6801768 89.7128906,11.4838867 C89.9121104,11.2875967 90.1494127,11.1894531 90.4248047,11.1894531 C90.7060561,11.1894531 90.9448232,11.2875967 91.1411133,11.4838867 C91.3374033,11.6801768 91.4355469,11.9160142 91.4355469,12.1914062 L93.4658203,12.1914062 C93.4658203,11.3593708 93.16846,10.6474639 92.5737305,10.0556641 C91.9790009,9.46386423 91.2626995,9.16796875 90.4248047,9.16796875 C89.5869099,9.16796875 88.8720733,9.46386423 88.2802734,10.0556641 C87.6884736,10.6474639 87.3896485,11.3593708 87.3837891,12.1914062 L87.3837891,19.2226562 C87.3896485,20.0605511 87.6884736,20.7739228 88.2802734,21.362793 C88.8720733,21.9516631 89.5869099,22.2460938 90.4248047,22.2460938 C91.2626995,22.2460938 91.9790009,21.9516631 92.5737305,21.362793 C93.16846,20.7739228 93.4658203,20.0605511 93.4658203,19.2226562 L91.4355469,19.2226562 C91.4355469,19.5039077 91.3374033,19.7426748 91.1411133,19.9389648 C90.9448232,20.1352549 90.7060561,20.2333984 90.4248047,20.2333984 C90.1494127,20.2333984 89.9121104,20.1352549 89.7128906,19.9389648 Z M99.3964844,9.42285156 L99.3964844,14.7138672 L97.4013672,14.7138672 L97.4013672,9.42285156 L95.3974609,9.42285156 L95.3974609,22 L97.4013672,22 L97.4013672,16.7089844 L99.3964844,16.7089844 L99.3964844,22 L101.391602,22 L101.391602,9.42285156 L99.3964844,9.42285156 Z M106.047852,17.2011719 L106.99707,17.2011719 L106.522461,12.9121094 L106.047852,17.2011719 Z M109.915039,22.0175781 L107.911133,22.0175781 L107.375,19.1962891 L105.669922,19.1962891 L105.133789,22.0175781 L103.138672,22.0175781 L105.529297,9.43164062 L107.515625,9.43164062 L109.915039,22.0175781 Z M111.723633,9.44042969 L113.71875,9.44042969 L113.71875,22 L111.723633,22 L111.723633,9.44042969 Z M120.695312,9.44921875 L120.695312,16.6123047 L118.049805,9.44921875 L116.054688,9.44921875 L116.054688,22 L118.049805,22 L118.049805,14.8369141 L120.695312,22 L122.69043,22 L122.69043,9.44921875 L120.695312,9.44921875 Z M129.526367,11.4443359 L129.526367,9.44921875 L125.026367,9.44921875 L125.026367,22 L129.526367,22 L129.526367,20.0136719 L127.012695,20.0136719 L127.012695,16.7265625 L129.526367,16.7265625 L129.526367,14.7314453 L127.012695,14.7314453 L127.012695,11.4443359 L129.526367,11.4443359 Z M133.804688,11.4443359 L133.804688,14.7314453 L134.806641,14.7314453 C135.082033,14.7314453 135.316405,14.6347666 135.509766,14.4414062 C135.703126,14.2480459 135.799805,14.0136733 135.799805,13.7382812 L135.799805,12.4462891 C135.799805,12.1708971 135.703126,11.9350596 135.509766,11.7387695 C135.316405,11.5424795 135.082033,11.4443359 134.806641,11.4443359 L133.804688,11.4443359 Z M138.058594,22 L136.063477,22 L134.455078,16.7177734 L133.857422,16.7177734 L133.857422,22 L131.862305,22 L131.862305,9.44921875 L134.859375,9.44921875 C135.820317,9.44921875 136.557126,9.75243837 137.069824,10.3588867 C137.582522,10.9653351 137.841797,11.608395 137.847656,12.2880859 L137.847656,13.9404297 C137.794922,14.6669958 137.578127,15.2294902 137.197266,15.6279297 C136.816404,16.0263692 136.450197,16.2695308 136.098633,16.3574219 L138.058594,22 Z" id="PaintsChainer" fill="#FFFFFF"></path>
            <path d="M46.6582031,13.7382812 L46.6582031,12.4462891 C46.6582031,12.1708971 46.5615244,11.9350596 46.3681641,11.7387695 C46.1748037,11.5424795 45.9404311,11.4443359 45.6650391,11.4443359 L44.6630859,11.4443359 L44.6630859,14.7314453 L45.6650391,14.7314453 C45.9404311,14.7314453 46.1748037,14.6347666 46.3681641,14.4414062 C46.5615244,14.2480459 46.6582031,14.0136733 46.6582031,13.7382812 Z M42.6679688,9.44921875 L45.6650391,9.44921875 C46.6435596,9.44921875 47.3862279,9.76269218 47.8930664,10.3896484 C48.3999049,11.0166047 48.6533203,11.6494109 48.6533203,12.2880859 L48.6533203,13.9404297 C48.6533203,14.5498077 48.4189477,15.1489228 47.9501953,15.737793 C47.481443,16.3266631 46.7197318,16.65332 45.6650391,16.7177734 L44.6630859,16.7177734 L44.6630859,22 L42.6679688,22 L42.6679688,9.44921875 Z M52.7294922,17.2011719 L53.6787109,17.2011719 L53.2041016,12.9121094 L52.7294922,17.2011719 Z M56.5966797,22.0175781 L54.5927734,22.0175781 L54.0566406,19.1962891 L52.3515625,19.1962891 L51.8154297,22.0175781 L49.8203125,22.0175781 L52.2109375,9.43164062 L54.1972656,9.43164062 L56.5966797,22.0175781 Z M58.4052734,9.44042969 L60.4003906,9.44042969 L60.4003906,22 L58.4052734,22 L58.4052734,9.44042969 Z M67.3769531,9.44921875 L67.3769531,16.6123047 L64.7314453,9.44921875 L62.7363281,9.44921875 L62.7363281,22 L64.7314453,22 L64.7314453,14.8369141 L67.3769531,22 L69.3720703,22 L69.3720703,9.44921875 L67.3769531,9.44921875 Z M77.3769531,9.44921875 L71.3916016,9.44921875 L71.3916016,11.4443359 L73.3867188,11.4443359 L73.3867188,22 L75.3818359,22 L75.3818359,11.4443359 L77.3769531,11.4443359 L77.3769531,9.44921875 Z M82.1914062,11.1894531 C82.8476595,11.1894531 83.1845702,11.5234342 83.2021484,12.1914062 L85.2236328,12.15625 C85.211914,11.330074 84.911624,10.6254912 84.3227539,10.0424805 C83.7338838,9.45946974 83.0234417,9.16796875 82.1914062,9.16796875 C80.2812404,9.17382815 79.273438,10.1816306 79.1679688,12.1914062 C79.1679688,13.5449286 79.8417901,14.8691342 81.1894531,16.1640625 C82.4726627,17.3945374 83.1142578,18.3847619 83.1142578,19.1347656 C83.1142578,19.8027377 82.8066437,20.1367188 82.1914062,20.1367188 C81.5234342,20.1367188 81.1894531,19.8027377 81.1894531,19.1347656 L79.1767578,19.3896484 C79.2412113,20.1689492 79.5634737,20.8398409 80.1435547,21.4023438 C80.7236357,21.9648466 81.4062461,22.2460938 82.1914062,22.2460938 C83.0351605,22.2460938 83.7514619,21.9531279 84.340332,21.3671875 C84.9292022,20.7812471 85.2236328,20.0605512 85.2236328,19.2050781 C85.2236328,17.7226488 84.5498114,16.3574281 83.2021484,15.109375 C81.9189389,13.7968684 81.2773438,12.8242219 81.2773438,12.1914062 C81.2773438,11.6347628 81.5820282,11.3007818 82.1914062,11.1894531 Z" id="PaintsChainer-Copy-2" fill="#AAA39C"></path>
            <g id="logomark" fill="#FFFFFF">
                <path d="M29,24.0114918 C28.1731475,24.4370619 27.3496144,24.6512378 26.4483281,24.29298 C25.925816,24.0852835 25.4173861,23.8488883 24.9024851,23.6258117 C24.6449172,23.5142243 24.3809119,23.4595759 24.1060767,23.5523473 C23.7818537,23.6617422 23.5756854,23.8813501 23.5441013,24.2183375 C23.5120814,24.5601353 23.6876379,24.81659 23.9666642,25.0033107 C24.1979119,25.1579951 24.4674496,25.211629 24.7424524,25.2367935 C25.2622821,25.2844063 25.7791278,25.2311977 26.2959399,25.1869882 C26.5133403,25.1684012 26.731009,25.1569152 26.9485099,25.1699065 C27.2289779,25.1866609 27.4414161,25.3477264 27.4828912,25.5628185 C27.5428741,25.8739215 27.4250205,26.1037719 27.1400262,26.2300195 C27.0072523,26.2887911 26.8687115,26.3326079 26.724035,26.3472026 C26.6360555,26.3560707 26.6125184,26.3750831 26.6375979,26.4673309 C26.6973461,26.687397 26.6881592,26.91031 26.6185535,27.1286417 C26.5298365,27.4069557 26.3541123,27.5408606 26.0563435,27.5607238 C25.6979547,27.584612 25.3576714,27.51406 25.0296932,27.3758029 C24.7699124,27.2663098 24.5049347,27.1901293 24.2176604,27.2627429 C23.9767898,27.3236415 23.7790708,27.437585 23.7165397,27.6897529 C23.6508233,27.9547811 23.6898508,28.1976228 23.9145605,28.3899066 C24.2417675,28.669824 24.6176584,28.8691106 25.0138005,29.0372117 C25.3305802,29.1716074 25.6587595,29.2839474 25.9398311,29.4886989 C26.2086646,29.684484 26.3551852,29.9407424 26.3430813,30.2721341 C26.333928,30.5220113 26.2135262,30.6675331 25.9675593,30.729217 C25.5767147,30.8271914 25.242299,30.7449898 24.9692743,30.4398751 C24.7395354,30.1831259 24.5682705,29.890119 24.3895287,29.6009407 C24.1843999,29.26896 23.8896486,29.0477814 23.511109,28.9344269 C23.2528371,28.8571011 22.9673063,28.9374047 22.8110958,29.1249436 C22.6641058,29.3013564 22.6519348,29.5908946 22.7800147,29.8206141 C22.8425793,29.9328233 22.9347834,30.0196716 23.027088,30.1071091 C23.2513618,30.3196814 23.4921318,30.5155975 23.6920637,30.7526471 C23.9266308,31.0306666 23.9995559,31.3283857 23.8263463,31.6609882 C23.7006471,31.9024227 23.4681587,32.0249725 23.1912783,31.9957504 C22.809587,31.9554676 22.5283143,31.7823272 22.4007039,31.4130089 C22.3132945,31.1600883 22.2158264,30.9098184 22.1430355,30.6529056 C21.966406,30.0292924 21.4842626,29.7595519 20.8953972,29.6269887 C20.5555498,29.5505137 20.2044703,29.5715877 19.8621082,29.6314391 C19.4892015,29.6966572 19.2278113,29.9389426 18.9944512,30.2090103 C18.7352069,30.5090855 18.6056854,30.8664597 18.5339674,31.2479839 C18.5118384,31.3654615 18.4863566,31.4846408 18.4424004,31.595541 C18.3355107,31.8654124 18.0292927,32.0113268 17.6628905,31.9793231 C17.4266134,31.9586746 17.2305708,31.78164 17.1705879,31.5311083 C17.1216359,31.3266514 17.1882575,31.1431375 17.2863291,30.9671501 C17.3884577,30.7838981 17.5289767,30.6276757 17.6616834,30.4660213 C17.8144069,30.2800532 17.9293099,30.075629 17.9654539,29.8371395 C18.0467276,29.2999493 17.644282,28.9471564 17.1044356,29.085708 C16.7404811,29.1791338 16.4575655,29.3968765 16.2131409,29.667795 C16.0728901,29.823232 15.9419939,29.9879625 15.7909804,30.1326989 C15.4224324,30.4859826 14.9749577,30.5619668 14.4893608,30.4385335 C14.1928326,30.3632038 14.0105703,30.1214747 14.0091621,29.8218576 C14.0074521,29.4598039 14.1604773,29.1785775 14.4974748,29.0082186 C14.8066434,28.851898 15.1453843,28.7753576 15.4741337,28.6725074 C16.0718172,28.4854594 16.6159888,28.2064909 17.0803955,27.7895598 C17.1749131,27.7047076 17.2672177,27.616223 17.3299835,27.5047665 C17.4520617,27.2879073 17.4723466,27.0618529 17.3323305,26.8518657 C17.1991208,26.6520882 16.9752158,26.6235205 16.7519814,26.6327813 C16.3033332,26.6514992 15.9474256,26.8689801 15.6260525,27.1530208 C15.4309822,27.3254413 15.2533134,27.5143872 15.0887543,27.7144592 C14.82666,28.0331214 14.4669636,28.0937582 14.0800754,28.0846937 C13.9506879,28.0816832 14.0138561,27.9945403 14.0267982,27.9447023 C14.1339561,27.5325815 14.2459421,27.1216388 14.356587,26.7103689 C14.6915057,25.4658585 15.0326942,24.2229516 15.3571519,22.975856 C15.4404038,22.6557867 15.6044264,22.4670044 15.931667,22.3465161 C17.5350118,21.7562155 19.1291362,21.1421248 20.7264123,20.5362805 C21.1531997,20.374397 21.5806578,20.2141169 22.00597,20.0486992 C22.1964468,19.9746457 22.3723386,19.9825321 22.5488675,20.0897018 C24.6638274,21.3739387 26.7797933,22.6566048 28.8953903,23.9398926 C28.9233868,23.9568434 28.9495057,23.9767721 29,24.0114918" id="Fill-1"></path>
                <path d="M1.11657462,14.9957347 C1.27927259,14.8056741 1.46457208,14.7046065 1.65501878,14.6105552 C2.09873452,14.3914177 2.58679543,14.3225273 3.06007462,14.2027604 C3.51906701,14.0865832 3.97287919,13.9531753 4.37462538,13.6930494 C4.6188868,13.5348396 4.82292741,13.3436695 4.88568376,13.0424247 C4.96622437,12.655842 4.72631827,12.3047324 4.33183096,12.2389096 C4.08931827,12.198476 3.86310508,12.2576415 3.64101624,12.3466998 C3.20267868,12.522434 2.81891472,12.7824946 2.4628665,13.0865133 C2.14519137,13.3577347 1.7816533,13.5188163 1.35780051,13.5418886 C0.879077157,13.5679305 0.484061929,13.2902802 0.40566599,12.8652872 C0.346407107,12.5439072 0.558465482,12.1725646 0.913589848,11.9902056 C1.23288173,11.8262196 1.58440964,11.7933245 1.93474975,11.7551427 C2.32755431,11.7123594 2.72441726,11.6975436 3.1089731,11.5944527 C3.21610761,11.5657347 3.31661015,11.5245179 3.40863299,11.4630028 C3.57608223,11.3511007 3.61511523,11.1870168 3.58730051,11.0041683 C3.56238934,10.8405413 3.43209239,10.7764807 3.28935635,10.7360797 C3.01269391,10.6578559 2.72435127,10.6560284 2.44224467,10.6131147 C2.37727766,10.6032266 2.31132081,10.5955249 2.24823452,10.5782289 C1.95283096,10.4971986 1.77505431,10.2526392 1.80534365,9.97384662 C1.83464315,9.70458322 2.03799086,9.52891422 2.35121168,9.50434079 C2.56129036,9.48786061 2.76760761,9.52294219 2.97468376,9.54986527 C3.17090457,9.57531981 3.36643249,9.59212634 3.56337919,9.54105408 C3.71245025,9.50238275 3.80909239,9.41733846 3.83743503,9.27061585 C3.86736142,9.11566946 3.82403909,8.97899814 3.69116853,8.8807697 C3.42338173,8.68277902 3.11164569,8.59812634 2.78813046,8.55371142 C2.14123198,8.46488159 1.48803147,8.41312401 0.85838934,8.22655524 C0.727267513,8.18772075 0.595518782,8.1452965 0.472084772,8.08773007 C0.110592386,7.91920793 -0.0616081218,7.56832681 0.019922335,7.1869655 C0.0907954315,6.85550163 0.413815736,6.61077902 0.795698985,6.59632214 C1.06790711,6.58600979 1.31774467,6.66097016 1.5502269,6.793138 C1.75492741,6.90951096 1.96018883,7.02650396 2.1547599,7.15828019 C2.66126497,7.50132914 3.22125482,7.74014499 3.77672437,7.98780466 C4.08938426,8.12721725 4.41517614,8.18406573 4.75601371,8.10186061 C5.01515584,8.0393338 5.17930558,7.8839958 5.23793756,7.62370676 C5.30013299,7.34759021 5.1824731,7.14764149 4.96153909,6.99530583 C4.74806193,6.84812634 4.50508731,6.75965548 4.26551117,6.66488625 C4.07196294,6.58829417 3.87768883,6.51320326 3.68691218,6.43024755 C3.49653147,6.34745501 3.33716599,6.22533846 3.24108477,6.03645268 C3.01312284,5.58832214 3.2604198,5.1630028 3.76527513,5.12622424 C4.05714822,5.10497949 4.31810508,5.19136177 4.56606193,5.33064382 C4.71886142,5.41643869 4.87077005,5.50396317 5.02050102,5.59488159 C5.1915467,5.69875571 5.37654924,5.73262984 5.57346294,5.71422424 C5.8506203,5.68828019 6.03697563,5.45455524 5.96956701,5.1879352 C5.86111269,4.7587324 5.61510254,4.4100704 5.27812538,4.12279301 C5.08708477,3.95991655 4.87179289,3.8238 4.71754162,3.62042471 C4.62023959,3.49210769 4.54992741,3.35328252 4.53385888,3.19128718 C4.51092741,2.95974872 4.59602132,2.77817296 4.78831574,2.64372075 C4.98456954,2.506462 5.19138173,2.47793986 5.40898325,2.58514266 C5.5880467,2.67338508 5.71078782,2.81690956 5.79654162,2.99355758 C5.92337411,3.25479301 5.98837411,3.53547832 6.0638665,3.81319394 C6.21996548,4.38761818 6.5559198,4.80794452 7.14916853,4.97499814 C7.61482589,5.10612168 7.99809492,4.8722662 8.1093868,4.40713333 C8.25977766,3.77834079 8.22176751,3.15480233 8.01660508,2.54320793 C7.91405685,2.23762284 7.86123198,1.93190723 7.94797563,1.61545501 C8.07553401,1.15028951 8.50139949,0.892970163 8.89572183,1.05437809 C9.21956701,1.18693753 9.31620914,1.47676037 9.36514061,1.78887226 C9.41344518,2.09739441 9.32782335,2.39423357 9.27968376,2.69361818 C9.18789188,3.26455058 9.15242234,3.8394317 9.15971421,4.41617296 C9.16618122,4.92865781 9.4581203,5.30385128 9.90503655,5.40553893 C10.3293843,5.50210303 10.6640848,5.34017296 10.8569401,4.95398182 C11.0143589,4.63867179 11.0598919,4.30218228 11.0684376,3.95717529 C11.0704503,3.87598182 11.0687345,3.79469044 11.0687345,3.71055991 C11.136968,3.7116042 11.1326787,3.76613566 11.1465365,3.79971608 C11.7231228,5.19867179 12.2951558,6.59945501 12.8761635,7.99658322 C13.0190315,8.34018695 13.002864,8.63232681 12.7844046,8.95759021 C11.6345975,10.6692452 10.5005619,12.3913758 9.3749731,14.1187604 C9.19897817,14.3888723 8.98190457,14.4993385 8.67327005,14.5169282 C7.82813807,14.565096 6.98379797,14.6272312 6.13902893,14.6822848 C4.52666599,14.7873338 2.91427005,14.8913711 1.30184112,14.9953431 C1.25347056,14.9984434 1.20473706,14.9957347 1.11657462,14.9957347" id="Fill-3"></path>
                <path d="M0.802441012,16.4796399 C1.02562308,16.4655197 1.22400713,16.4522399 1.42249466,16.440574 C3.90553739,16.2945978 6.38864909,16.1496303 8.87158835,16.0018387 C9.10660034,15.987853 9.28235923,16.0523017 9.43845907,16.2415462 C10.9114055,18.0271481 12.3924225,19.8063623 13.8729566,21.5859799 C13.9778739,21.7120869 14.0278838,21.8414886 13.9841855,22.0043417 C13.5275435,23.7054913 13.0728329,25.4071452 12.6174325,27.108631 C12.5672847,27.2960936 12.5576621,27.3009684 12.3866972,27.1896877 C12.1616872,27.0432073 11.9906189,26.8577618 11.8993595,26.6000679 C11.7782321,26.2580898 11.4043306,26.0903618 11.0270146,26.1910188 C10.6391448,26.2945334 10.4566949,26.5659777 10.5201212,26.9478959 C10.5829957,27.326284 10.5905834,27.704941 10.5453676,28.0861868 C10.4843555,28.600566 10.2807636,28.8342892 9.76321294,28.9535714 C9.63536007,28.9830221 9.50447212,29 9.37092847,29 C8.81626707,28.9999328 8.50272231,28.7904493 8.32810157,28.2738176 C8.28347206,28.1417599 8.21987327,28.105787 8.08081129,28.0827576 C7.62999801,28.0079541 7.33073193,27.7370141 7.17835697,27.3201316 C7.03229361,26.9205632 7.10530805,26.5613718 7.41240326,26.2513323 C7.71949846,25.9413263 8.09184796,25.7194036 8.46609437,25.4998007 C8.70707306,25.3583968 8.95557047,25.2285581 9.19203103,25.0803631 C9.83764145,24.6756508 10.0362324,24.0584966 10.0119863,23.3545367 C10.0015014,23.049372 9.64067147,22.7483089 9.28573921,22.7109912 C8.6275056,22.6418021 8.08274271,22.8444944 7.64562179,23.3409208 C7.08644225,23.9758598 6.70753974,24.7007983 6.43258882,25.4881011 C6.24741427,26.0184496 6.01560981,26.5305091 5.66826526,26.9848101 C5.36351534,27.38337 4.89283606,27.5212102 4.41463806,27.3473298 C3.98400118,27.1907635 3.8035517,26.8372203 3.93954411,26.4061839 C4.06587944,26.0058759 4.34524502,25.7191683 4.69476241,25.4990274 C5.1703737,25.1994772 5.5801099,24.841328 5.86351077,24.3574417 C5.94335414,24.2211144 6.01119514,24.0796433 6.06048075,23.9297337 C6.19574888,23.5181631 6.00315907,23.1810598 5.56948711,23.0752927 C5.26163313,23.0001866 4.97585248,23.0624164 4.71121394,23.2218403 C4.41736273,23.3988473 4.18993845,23.640303 4.01004081,23.9270442 C3.85732095,24.1704834 3.70905026,24.4174863 3.54108601,24.650806 C3.19953571,25.1251779 2.52191896,25.286182 1.98757191,25.0324216 C1.41063024,24.7584222 1.38797059,23.8581241 1.95066807,23.480442 C2.19368164,23.3173535 2.46787379,23.2144777 2.7422039,23.1146276 C3.08620295,22.9894283 3.43230588,22.8695746 3.77647738,22.7448461 C3.85676912,22.7157315 3.93712984,22.6827507 4.01045468,22.6400539 C4.25119194,22.4999276 4.3664906,22.2626408 4.31206605,22.0339942 C4.25019174,21.774115 4.07115634,21.6307276 3.76961396,21.5975451 C3.42885692,21.5600593 3.13924793,21.6856283 2.86853922,21.8675101 C2.59000139,22.0546702 2.329812,22.2681207 2.01526705,22.4021955 C1.64043431,22.5619893 1.24590801,22.632355 0.841966069,22.6372971 C0.215842258,22.6450296 -0.144125475,22.1547556 0.054948373,21.5784828 C0.161521171,21.2698552 0.432747218,21.1602555 0.721976825,21.0808461 C0.959851449,21.0155569 0.971439947,21.0152207 0.911359101,20.7937351 C0.727805564,20.1174104 1.29584892,19.5593594 1.82585028,19.4491881 C2.19547509,19.3723674 2.56872132,19.3843696 2.94162264,19.3945563 C3.89967416,19.4206451 4.83237583,19.2658271 5.74300418,18.9954586 C6.2413441,18.8475325 6.60624384,18.5385688 6.72030088,18.0073126 C6.77179382,17.7675379 6.69488206,17.5767469 6.5180195,17.4179281 C6.21630467,17.1471226 5.85154288,17.1093678 5.46881203,17.1702864 C4.86345094,17.2666401 4.31582541,17.5010356 3.88349854,17.9266592 C3.43744482,18.3657979 2.74575632,18.3323801 2.3444011,18.1556757 C2.01761234,18.0117503 1.90034777,17.7534513 1.90728018,17.4229374 C1.90959098,17.3114886 1.95556559,17.1759682 1.90617651,17.0952476 C1.85302807,17.0083074 1.6953762,17.0530551 1.58525098,17.0252517 C1.26073853,16.9433544 1.00444647,16.7751894 0.802441012,16.4796399 Z M5.99712083,29 C6.00717769,29.0708409 5.98951626,29.1158422 5.96541447,29.1537627 C5.84005049,29.3511507 5.82781382,29.5779691 5.87490272,29.8158617 C5.92583106,30.0729494 5.90076322,30.3250034 5.8596688,30.5770909 C5.84195783,30.6857181 5.7951414,30.7662237 5.7240498,30.8249838 C5.50220436,31.0082774 5.27689104,31.0853601 5.04305663,30.8678037 C4.99393654,30.8221313 4.94838342,30.8417963 4.90191378,30.8576692 C4.67395001,30.9355909 4.45185686,30.9638802 4.23008573,30.8081376 C3.96281102,30.6204143 3.91492946,30.0143571 4.15780514,29.7718672 C4.2382848,29.6915293 4.29468744,29.5986073 4.34767174,29.4790066 C4.46733848,29.2087978 4.67120047,29.1120837 4.89780186,29.114869 C4.99195489,29.1160099 5.08586021,29.1419167 5.18003801,29.1547359 C5.49137961,29.1972203 5.49633373,29.2779608 5.99712083,29 Z" id="Fill-6"></path>
                <path d="M30.0391131,11.6603317 C30.2390018,11.0661256 30.5274082,10.5356477 30.9871709,10.1694815 C31.1946678,10.0042331 31.4406713,9.94640086 31.6922613,10.0564415 C31.9212261,10.1565934 32.0364667,10.3878756 31.98974,10.6683198 C31.9223035,11.0728175 31.7409433,11.3876611 31.4319724,11.5910113 C31.429232,11.5928149 31.4264897,11.5946113 31.4237455,11.5964003 C31.4748921,11.6201667 31.524528,11.6487477 31.5723964,11.682879 C31.9530328,11.9543147 31.9600393,12.4094565 31.587017,12.6867365 C31.3561257,12.8583644 31.0806933,12.9457043 30.7963599,13.0128814 C30.3258549,13.1240207 29.8391565,13.1119749 29.3614305,13.1683076 C29.1576714,13.1923017 28.9658518,13.2420108 28.7940864,13.3487669 C28.4525931,13.5610451 28.3696596,13.9097556 28.5957608,14.2276535 C28.836697,14.5664286 29.2144737,14.6652948 29.6272469,14.6896461 C29.9725293,14.7100363 30.3173471,14.6783471 30.662415,14.6706197 C30.9549703,14.6640611 31.2477758,14.668769 31.5258177,14.765817 C31.8977676,14.8956905 32.0737154,15.2041401 31.9711209,15.5295058 C31.8969097,15.7649016 31.7177803,15.8889633 31.4606148,15.9258149 C30.8889094,16.0076677 30.3317532,15.9302955 29.7861791,15.7779863 C29.3961769,15.6691848 29.0037438,15.5888255 28.5934729,15.6007414 C28.382886,15.6068455 28.1782689,15.6384048 27.9909177,15.7318163 C27.7320363,15.8608781 27.6109962,16.0949427 27.6645813,16.359625 C27.742117,16.7428168 28.0040012,17.0205189 28.3076024,17.2707527 C28.6645742,17.5649163 29.0795279,17.7756036 29.5231152,17.9418093 C30.0464189,18.1379183 30.5697225,18.3335728 31.0362595,18.6325741 C31.3448295,18.830404 31.5916641,19.0734623 31.7261452,19.3994124 C31.8449332,19.6872121 31.8199459,19.9599141 31.5662836,20.17716 C31.3173042,20.3904124 31.0144537,20.423108 30.7025592,20.3041114 C30.2224739,20.1208923 29.8903465,19.783351 29.609838,19.3997695 C29.3941035,19.1047943 29.152631,18.8323196 28.841094,18.6160477 C28.6371918,18.4744531 28.4080878,18.3944835 28.1497426,18.3800675 C27.6501752,18.3521122 27.2952052,18.8210531 27.5085447,19.2337587 C27.6251521,19.459349 27.8344879,19.6177623 28.0174779,19.7943578 C28.1153538,19.8888083 28.215446,19.9836809 28.3277996,20.0628713 C28.8689053,20.4443424 29.0863557,20.9745511 29.1790125,21.564112 C29.1997101,21.6956414 29.2173335,21.8275279 29.2422136,22 C28.9967374,21.8614574 28.7866152,21.7431102 28.5767432,21.6244707 C26.616294,20.516065 24.6632801,19.39675 22.6857794,18.3134424 C22.4818773,18.2017187 22.3926164,18.0526239 22.3814991,17.8366442 C22.3214795,16.6697629 22.2510574,15.5033038 22.1851038,14.3366499 C22.1429936,13.5912083 22.1031354,12.8456693 22.060775,12.1002601 C22.0432946,11.7924274 22.0240268,11.4846596 22.0013988,11.177119 C21.9906747,11.0309139 22.041114,10.919872 22.1699827,10.8241228 C23.8295834,9.59120087 25.4865387,8.35538927 27.14378,7.11983742 C27.3771379,6.94583936 27.4332253,6.95389152 27.5943738,7.19298869 C27.9132748,7.6660855 27.8323788,8.27162085 27.3934744,8.66591689 C27.0893012,8.93920327 26.7306136,9.14037737 26.3441146,9.30236214 C26.0792277,9.41333907 25.8100868,9.51691321 25.5810901,9.68675532 C25.4395668,9.79175808 25.3297514,9.91731331 25.2768455,10.0780643 C25.1406843,10.492166 25.4829282,10.8516235 25.9534332,10.7899011 C26.2305457,10.753569 26.451535,10.6201239 26.6526131,10.4535611 C26.8430744,10.2957973 26.9944281,10.1084547 27.1451027,9.91981338 C27.3799977,9.62574723 27.6907125,9.4346708 28.0960146,9.4069428 C28.6437335,9.36947428 28.956486,9.73191884 28.8044531,10.2119314 C28.7269173,10.4566132 28.5510052,10.6238253 28.3058865,10.7354192 C28.1303319,10.8153239 27.945483,10.8803256 27.7768276,10.9705227 C27.4422693,11.149456 27.2018692,11.3906961 27.2089829,11.7730762 C27.2113423,11.8999951 27.2676441,12.001329 27.3717043,12.0848052 C27.7919129,12.4217945 28.2717122,12.4446198 28.7785363,12.2993238 C29.088715,12.2103929 29.3569264,12.0454535 29.6212056,11.8788582 C29.7559625,11.793888 29.8948082,11.7200593 30.0391131,11.6603317 Z M31.9948737,6.68419654 C32.0116693,6.85329529 31.9891035,7.0024233 31.8744715,7.11938256 C31.8348526,7.15980627 31.833951,7.20851329 31.8484281,7.26235483 C31.8781551,7.37267609 31.8459294,7.46495561 31.7791337,7.54863977 C31.4672057,7.93931717 31.0712486,8.053156 30.6176406,7.97843597 C30.6008708,7.97565595 30.5779701,7.97494676 30.5691345,7.96314588 C30.4612258,7.8186985 30.2892262,7.77583519 30.1674844,7.66276228 C29.9553764,7.4657499 29.9478288,7.05864772 30.127273,6.81017667 C30.2261657,6.67321831 30.3650379,6.60485261 30.5026736,6.52485622 C30.6310358,6.45022129 30.6394593,6.23394737 30.7887643,6.1635392 C31.0978587,6.01775855 31.4118217,5.91013221 31.7348007,6.10785377 C31.9391033,6.23295451 32.0224627,6.43566876 31.9948737,6.68419654 Z" id="Fill-8"></path>
                <path d="M13.0294368,3.27158553 C13.4157096,3.47701316 13.787212,3.68901974 14.1806856,3.85707895 C14.4612215,3.97688158 14.7585373,4.02918421 15.0628866,3.97454605 C15.5208675,3.89230921 15.7171354,3.56257237 15.5791115,3.12494079 C15.518322,2.93217763 15.4060206,2.77020395 15.2626378,2.62803289 C15.0702215,2.43727632 14.8668196,2.25592763 14.7066904,2.03668421 C14.5184943,1.77908553 14.3623842,1.50855921 14.4246474,1.17158553 C14.5022837,0.751421053 14.916456,0.486190789 15.3366904,0.592506579 C15.8306761,0.717440789 16.1060876,1.05559868 16.2362407,1.51931579 C16.3361498,1.87543421 16.3178292,2.24783553 16.36981,2.61099342 C16.4298962,3.03063158 16.5374081,3.43145395 16.8661402,3.73359211 C17.2185517,4.05753947 17.6367766,4.16276974 18.1042694,4.047375 C18.4594273,3.95967763 18.7427431,3.56382237 18.780456,3.13155263 C18.803499,2.86724342 18.74981,2.623 18.6206282,2.38776974 C18.3591163,1.91168421 18.1488818,1.41655263 18.1445612,0.863263158 C18.1402072,0.302572368 18.4821019,-0.0159473684 19.0518148,0.0122105263 C19.3673842,0.0278355263 19.561877,0.211848684 19.6819823,0.480138158 C19.830456,0.811684211 19.862944,1.16694737 19.8825038,1.52339474 C19.9013938,1.86730921 19.8781833,2.211125 19.937834,2.55559868 C20.056834,3.24336184 20.7407574,3.38359211 21.232901,3.08007237 C21.5298148,2.89694737 21.6932933,2.62392105 21.8201306,2.32204605 C21.9413077,2.03369079 22.0389057,1.73553289 22.1653411,1.44957895 C22.3139823,1.11349342 22.5757287,0.885368421 22.9433794,0.809809211 C23.4558866,0.704414474 24.0439536,1.13714474 23.8478866,1.80155263 C23.7134464,2.25694737 23.4052789,2.58852632 23.0358531,2.87918421 C22.6662933,3.16994079 22.3510923,3.50875658 22.1832933,3.95596053 C22.0933651,4.1955 22.1624943,4.41306579 22.3791258,4.558625 C22.7053794,4.77790132 23.0421498,4.75253947 23.3739967,4.57523684 C23.7360541,4.38181579 23.9795469,4.06082895 24.2406904,3.76253947 C24.5286282,3.43365789 24.8764177,3.21526974 25.3168483,3.15526974 C25.6365038,3.11178289 25.922566,3.18303289 26.1138435,3.45681579 C26.2988914,3.72171711 26.2636569,3.99717763 26.0987383,4.25977632 C25.8696809,4.62448026 25.5263124,4.85326316 25.131633,5.01263816 C24.7866234,5.15194737 24.4274464,5.25760526 24.1009919,5.44063158 C23.8292311,5.59296711 23.5969249,5.78382237 23.4525708,6.06306579 C23.230011,6.49382237 23.3821689,6.83484211 23.8546856,6.96105921 C24.1826474,7.04869079 24.4980493,7.01842763 24.7836091,6.83076316 C25.0151785,6.678625 25.2383746,6.51398684 25.4626426,6.35128947 C25.9064895,6.02925 26.405901,6.02819737 26.919212,6.10253947 C26.9462072,6.10645395 26.9857287,6.11148684 26.9799344,6.14250658 C26.97481,6.17017105 26.9460062,6.19714474 26.921456,6.21717763 C26.6428962,6.44513816 26.3635325,6.67211184 26.083633,6.89846053 C24.8994273,7.85615789 23.7122742,8.81033553 22.5328244,9.77359211 C22.2782455,9.98151974 22.0226952,10.0417829 21.6991211,9.95378947 C19.6160349,9.38744079 17.5368005,8.80684868 15.4407861,8.28750658 C15.173145,8.22122368 15.0098005,8.07227632 14.9054368,7.82184868 C14.2948292,6.35655263 13.6752455,4.89490789 13.059011,3.43188158 C13.0403555,3.38757237 13.0096761,3.34546711 13.0294368,3.27158553" id="Fill-10"></path>
            </g>
        </g>
    </g>
</svg>