<?xml version="1.0" encoding="UTF-8"?>
<svg width="17px" height="17px" viewBox="0 0 17 17" version="1.1" xmlns="http://www.w3.org/2000/svg" xmlns:xlink="http://www.w3.org/1999/xlink">
    <!-- Generator: Sketch 46.2 (44496) - http://www.bohemiancoding.com/sketch -->
    <title>icon18</title>
    <desc>Created with Sketch.</desc>
    <defs></defs>
    <g id="working" stroke="none" stroke-width="1" fill="none" fill-rule="evenodd">
        <g id="icon18" transform="translate(-1.000000, 0.000000)" stroke="#FFFFFF">
            <path d="M16,8.76923077 L16,15.5 C16,16.0522847 15.5522847,16.5 15,16.5 L2.5,16.5 C1.94771525,16.5 1.5,16.0522847 1.5,15.5 L1.5,5 C1.5,4.44771525 1.94771525,4 2.5,4 L10.2333333,4" id="Rectangle" stroke-linecap="round"></path>
            <path d="M12.5,14.1666667 L13.4,12.9666667 C13.4649111,12.8801186 13.5,12.7748518 13.5,12.6666667 L13.5,1 C13.5,0.723857625 13.2761424,0.5 13,0.5 L12,0.5 C11.7238576,0.5 11.5,0.723857625 11.5,1 L11.5,12.6666667 C11.5,12.7748518 11.5350889,12.8801186 11.6,12.9666667 L12.5,14.1666667 Z" id="Rectangle-2" transform="translate(12.500000, 7.500000) rotate(-330.000000) translate(-12.500000, -7.500000) "></path>
        </g>
    </g>
</svg>